<mxfile host="Electron" agent="Mozilla/5.0 (Windows NT 10.0; Win64; x64) AppleWebKit/537.36 (KHTML, like Gecko) draw.io/26.0.9 Chrome/128.0.6613.186 Electron/32.2.5 Safari/537.36" version="26.0.9">
  <diagram name="Página-1" id="nuIbM26-QWGX75nH5z3C">
    <mxGraphModel dx="3850" dy="1774" grid="0" gridSize="10" guides="1" tooltips="1" connect="1" arrows="1" fold="1" page="1" pageScale="1" pageWidth="850" pageHeight="1100" math="0" shadow="0">
      <root>
        <object label="" id="0">
          <mxCell />
        </object>
        <mxCell id="1" parent="0" />
        <mxCell id="85mBynxHX-61VZP4dtbM-3" style="edgeStyle=orthogonalEdgeStyle;rounded=0;orthogonalLoop=1;jettySize=auto;html=1;exitX=0.5;exitY=1;exitDx=0;exitDy=0;entryX=0.5;entryY=0;entryDx=0;entryDy=0;labelBackgroundColor=none;fontColor=default;" parent="1" source="85mBynxHX-61VZP4dtbM-1" target="85mBynxHX-61VZP4dtbM-2" edge="1">
          <mxGeometry relative="1" as="geometry" />
        </mxCell>
        <mxCell id="85mBynxHX-61VZP4dtbM-1" value="INICIO" style="ellipse;whiteSpace=wrap;html=1;aspect=fixed;labelBackgroundColor=none;" parent="1" vertex="1">
          <mxGeometry x="-738" y="17" width="80" height="80" as="geometry" />
        </mxCell>
        <mxCell id="85mBynxHX-61VZP4dtbM-9" style="edgeStyle=orthogonalEdgeStyle;rounded=0;orthogonalLoop=1;jettySize=auto;html=1;exitX=0.5;exitY=1;exitDx=0;exitDy=0;entryX=0.5;entryY=0;entryDx=0;entryDy=0;labelBackgroundColor=none;fontColor=default;" parent="1" source="85mBynxHX-61VZP4dtbM-2" target="85mBynxHX-61VZP4dtbM-7" edge="1">
          <mxGeometry relative="1" as="geometry" />
        </mxCell>
        <mxCell id="85mBynxHX-61VZP4dtbM-2" value="&quot;Ingresa 3 números diferentes&quot;" style="shape=parallelogram;perimeter=parallelogramPerimeter;whiteSpace=wrap;html=1;fixedSize=1;labelBackgroundColor=none;" parent="1" vertex="1">
          <mxGeometry x="-778" y="127" width="160" height="40" as="geometry" />
        </mxCell>
        <mxCell id="85mBynxHX-61VZP4dtbM-6" value="" style="endArrow=classic;html=1;rounded=0;labelBackgroundColor=none;fontColor=default;" parent="1" edge="1">
          <mxGeometry width="50" height="50" relative="1" as="geometry">
            <mxPoint x="-628" y="137" as="sourcePoint" />
            <mxPoint x="-598" y="107" as="targetPoint" />
          </mxGeometry>
        </mxCell>
        <mxCell id="85mBynxHX-61VZP4dtbM-12" style="edgeStyle=orthogonalEdgeStyle;rounded=0;orthogonalLoop=1;jettySize=auto;html=1;exitX=0.5;exitY=1;exitDx=0;exitDy=0;entryX=0.5;entryY=0;entryDx=0;entryDy=0;labelBackgroundColor=none;fontColor=default;" parent="1" source="85mBynxHX-61VZP4dtbM-7" target="85mBynxHX-61VZP4dtbM-10" edge="1">
          <mxGeometry relative="1" as="geometry" />
        </mxCell>
        <mxCell id="85mBynxHX-61VZP4dtbM-7" value="Leer N1&lt;div&gt;Leer N2&lt;/div&gt;&lt;div&gt;Leer N3&lt;/div&gt;" style="shape=parallelogram;perimeter=parallelogramPerimeter;whiteSpace=wrap;html=1;fixedSize=1;labelBackgroundColor=none;" parent="1" vertex="1">
          <mxGeometry x="-808" y="217" width="220" height="70" as="geometry" />
        </mxCell>
        <mxCell id="85mBynxHX-61VZP4dtbM-8" value="" style="endArrow=classic;html=1;rounded=0;labelBackgroundColor=none;fontColor=default;" parent="1" edge="1">
          <mxGeometry width="50" height="50" relative="1" as="geometry">
            <mxPoint x="-568" y="197" as="sourcePoint" />
            <mxPoint x="-608" y="227" as="targetPoint" />
          </mxGeometry>
        </mxCell>
        <mxCell id="85mBynxHX-61VZP4dtbM-13" style="edgeStyle=orthogonalEdgeStyle;rounded=0;orthogonalLoop=1;jettySize=auto;html=1;exitX=0.5;exitY=1;exitDx=0;exitDy=0;entryX=0.5;entryY=0;entryDx=0;entryDy=0;labelBackgroundColor=none;fontColor=default;" parent="1" source="85mBynxHX-61VZP4dtbM-10" target="85mBynxHX-61VZP4dtbM-11" edge="1">
          <mxGeometry relative="1" as="geometry" />
        </mxCell>
        <mxCell id="85mBynxHX-61VZP4dtbM-15" style="edgeStyle=orthogonalEdgeStyle;rounded=0;orthogonalLoop=1;jettySize=auto;html=1;exitX=1;exitY=0.5;exitDx=0;exitDy=0;entryX=0;entryY=0.5;entryDx=0;entryDy=0;labelBackgroundColor=none;fontColor=default;" parent="1" source="85mBynxHX-61VZP4dtbM-10" target="85mBynxHX-61VZP4dtbM-14" edge="1">
          <mxGeometry relative="1" as="geometry" />
        </mxCell>
        <mxCell id="85mBynxHX-61VZP4dtbM-10" value="N1 &amp;gt; N2 and&lt;div&gt;N1 &amp;gt; N3&lt;/div&gt;" style="rhombus;whiteSpace=wrap;html=1;labelBackgroundColor=none;" parent="1" vertex="1">
          <mxGeometry x="-783" y="317" width="170" height="140" as="geometry" />
        </mxCell>
        <mxCell id="85mBynxHX-61VZP4dtbM-36" style="edgeStyle=orthogonalEdgeStyle;rounded=0;orthogonalLoop=1;jettySize=auto;html=1;entryX=0;entryY=0.5;entryDx=0;entryDy=0;labelBackgroundColor=none;fontColor=default;" parent="1" source="85mBynxHX-61VZP4dtbM-11" target="85mBynxHX-61VZP4dtbM-31" edge="1">
          <mxGeometry relative="1" as="geometry">
            <Array as="points">
              <mxPoint x="-698" y="637" />
            </Array>
          </mxGeometry>
        </mxCell>
        <mxCell id="85mBynxHX-61VZP4dtbM-11" value="N1 &quot;es el mayor&quot;" style="shape=parallelogram;perimeter=parallelogramPerimeter;whiteSpace=wrap;html=1;fixedSize=1;labelBackgroundColor=none;" parent="1" vertex="1">
          <mxGeometry x="-758" y="492" width="120" height="60" as="geometry" />
        </mxCell>
        <mxCell id="85mBynxHX-61VZP4dtbM-24" style="edgeStyle=orthogonalEdgeStyle;rounded=0;orthogonalLoop=1;jettySize=auto;html=1;exitX=0.5;exitY=1;exitDx=0;exitDy=0;entryX=0.5;entryY=0;entryDx=0;entryDy=0;labelBackgroundColor=none;fontColor=default;" parent="1" source="85mBynxHX-61VZP4dtbM-14" target="85mBynxHX-61VZP4dtbM-22" edge="1">
          <mxGeometry relative="1" as="geometry" />
        </mxCell>
        <mxCell id="85mBynxHX-61VZP4dtbM-26" style="edgeStyle=orthogonalEdgeStyle;rounded=0;orthogonalLoop=1;jettySize=auto;html=1;exitX=1;exitY=0.5;exitDx=0;exitDy=0;entryX=0;entryY=0.5;entryDx=0;entryDy=0;labelBackgroundColor=none;fontColor=default;" parent="1" source="85mBynxHX-61VZP4dtbM-14" edge="1">
          <mxGeometry relative="1" as="geometry">
            <mxPoint x="-338" y="387" as="targetPoint" />
          </mxGeometry>
        </mxCell>
        <mxCell id="85mBynxHX-61VZP4dtbM-14" value="N2 &amp;gt; N1 and N2 &amp;gt; N3" style="rhombus;whiteSpace=wrap;html=1;labelBackgroundColor=none;" parent="1" vertex="1">
          <mxGeometry x="-558" y="317" width="150" height="140" as="geometry" />
        </mxCell>
        <mxCell id="85mBynxHX-61VZP4dtbM-19" value="SI" style="text;html=1;align=center;verticalAlign=middle;whiteSpace=wrap;rounded=0;labelBackgroundColor=none;" parent="1" vertex="1">
          <mxGeometry x="-758" y="457" width="60" height="30" as="geometry" />
        </mxCell>
        <mxCell id="85mBynxHX-61VZP4dtbM-20" value="" style="endArrow=classic;html=1;rounded=0;labelBackgroundColor=none;fontColor=default;" parent="1" edge="1">
          <mxGeometry width="50" height="50" relative="1" as="geometry">
            <mxPoint x="-663" y="507" as="sourcePoint" />
            <mxPoint x="-618" y="477" as="targetPoint" />
          </mxGeometry>
        </mxCell>
        <mxCell id="85mBynxHX-61VZP4dtbM-21" value="NO" style="text;html=1;align=center;verticalAlign=middle;whiteSpace=wrap;rounded=0;labelBackgroundColor=none;" parent="1" vertex="1">
          <mxGeometry x="-618" y="357" width="60" height="30" as="geometry" />
        </mxCell>
        <mxCell id="85mBynxHX-61VZP4dtbM-37" style="edgeStyle=orthogonalEdgeStyle;rounded=0;orthogonalLoop=1;jettySize=auto;html=1;entryX=0;entryY=0;entryDx=0;entryDy=0;labelBackgroundColor=none;fontColor=default;" parent="1" source="85mBynxHX-61VZP4dtbM-22" target="85mBynxHX-61VZP4dtbM-31" edge="1">
          <mxGeometry relative="1" as="geometry" />
        </mxCell>
        <mxCell id="85mBynxHX-61VZP4dtbM-22" value="N2 &quot;es el mayor&quot;" style="shape=parallelogram;perimeter=parallelogramPerimeter;whiteSpace=wrap;html=1;fixedSize=1;labelBackgroundColor=none;" parent="1" vertex="1">
          <mxGeometry x="-548" y="492" width="120" height="60" as="geometry" />
        </mxCell>
        <mxCell id="85mBynxHX-61VZP4dtbM-23" value="" style="endArrow=classic;html=1;rounded=0;labelBackgroundColor=none;fontColor=default;" parent="1" edge="1">
          <mxGeometry width="50" height="50" relative="1" as="geometry">
            <mxPoint x="-453" y="507" as="sourcePoint" />
            <mxPoint x="-408" y="477" as="targetPoint" />
          </mxGeometry>
        </mxCell>
        <mxCell id="85mBynxHX-61VZP4dtbM-27" value="N3 &quot;es el mayor&quot;" style="shape=parallelogram;perimeter=parallelogramPerimeter;whiteSpace=wrap;html=1;fixedSize=1;labelBackgroundColor=none;" parent="1" vertex="1">
          <mxGeometry x="-348" y="357" width="120" height="60" as="geometry" />
        </mxCell>
        <mxCell id="85mBynxHX-61VZP4dtbM-29" value="NO" style="text;html=1;align=center;verticalAlign=middle;whiteSpace=wrap;rounded=0;labelBackgroundColor=none;" parent="1" vertex="1">
          <mxGeometry x="-408" y="347" width="60" height="30" as="geometry" />
        </mxCell>
        <mxCell id="85mBynxHX-61VZP4dtbM-31" value="FIN" style="ellipse;whiteSpace=wrap;html=1;aspect=fixed;labelBackgroundColor=none;" parent="1" vertex="1">
          <mxGeometry x="-308" y="597" width="80" height="80" as="geometry" />
        </mxCell>
        <mxCell id="85mBynxHX-61VZP4dtbM-38" style="edgeStyle=orthogonalEdgeStyle;rounded=0;orthogonalLoop=1;jettySize=auto;html=1;entryX=0.658;entryY=0.045;entryDx=0;entryDy=0;entryPerimeter=0;labelBackgroundColor=none;fontColor=default;" parent="1" source="85mBynxHX-61VZP4dtbM-27" target="85mBynxHX-61VZP4dtbM-31" edge="1">
          <mxGeometry relative="1" as="geometry" />
        </mxCell>
        <mxCell id="85mBynxHX-61VZP4dtbM-39" value="SI" style="text;html=1;align=center;verticalAlign=middle;whiteSpace=wrap;rounded=0;labelBackgroundColor=none;" parent="1" vertex="1">
          <mxGeometry x="-558" y="447" width="60" height="30" as="geometry" />
        </mxCell>
        <mxCell id="M-nEcao3kTR3dlmHZCQ8-1" style="edgeStyle=orthogonalEdgeStyle;rounded=0;orthogonalLoop=1;jettySize=auto;html=1;exitX=0.5;exitY=1;exitDx=0;exitDy=0;entryX=0.5;entryY=0;entryDx=0;entryDy=0;labelBackgroundColor=none;fontColor=default;" edge="1" parent="1" source="M-nEcao3kTR3dlmHZCQ8-2" target="M-nEcao3kTR3dlmHZCQ8-4">
          <mxGeometry relative="1" as="geometry" />
        </mxCell>
        <mxCell id="M-nEcao3kTR3dlmHZCQ8-2" value="INICIO" style="ellipse;whiteSpace=wrap;html=1;aspect=fixed;labelBackgroundColor=none;" vertex="1" parent="1">
          <mxGeometry x="-743" y="1193" width="80" height="80" as="geometry" />
        </mxCell>
        <mxCell id="M-nEcao3kTR3dlmHZCQ8-3" style="edgeStyle=orthogonalEdgeStyle;rounded=0;orthogonalLoop=1;jettySize=auto;html=1;exitX=0.5;exitY=1;exitDx=0;exitDy=0;entryX=0.5;entryY=0;entryDx=0;entryDy=0;labelBackgroundColor=none;fontColor=default;" edge="1" parent="1" source="M-nEcao3kTR3dlmHZCQ8-4" target="M-nEcao3kTR3dlmHZCQ8-7">
          <mxGeometry relative="1" as="geometry" />
        </mxCell>
        <mxCell id="M-nEcao3kTR3dlmHZCQ8-4" value="&quot;Ingresa 3 números diferentes&quot;" style="shape=parallelogram;perimeter=parallelogramPerimeter;whiteSpace=wrap;html=1;fixedSize=1;labelBackgroundColor=none;" vertex="1" parent="1">
          <mxGeometry x="-783" y="1303" width="160" height="40" as="geometry" />
        </mxCell>
        <mxCell id="M-nEcao3kTR3dlmHZCQ8-5" value="" style="endArrow=classic;html=1;rounded=0;labelBackgroundColor=none;fontColor=default;" edge="1" parent="1">
          <mxGeometry width="50" height="50" relative="1" as="geometry">
            <mxPoint x="-633" y="1313" as="sourcePoint" />
            <mxPoint x="-603" y="1283" as="targetPoint" />
          </mxGeometry>
        </mxCell>
        <mxCell id="M-nEcao3kTR3dlmHZCQ8-6" style="edgeStyle=orthogonalEdgeStyle;rounded=0;orthogonalLoop=1;jettySize=auto;html=1;exitX=0.5;exitY=1;exitDx=0;exitDy=0;entryX=0.5;entryY=0;entryDx=0;entryDy=0;labelBackgroundColor=none;fontColor=default;" edge="1" parent="1" source="M-nEcao3kTR3dlmHZCQ8-7" target="M-nEcao3kTR3dlmHZCQ8-11">
          <mxGeometry relative="1" as="geometry" />
        </mxCell>
        <mxCell id="M-nEcao3kTR3dlmHZCQ8-7" value="Leer N1&lt;div&gt;Leer N2&lt;/div&gt;&lt;div&gt;Leer N3&lt;/div&gt;" style="shape=parallelogram;perimeter=parallelogramPerimeter;whiteSpace=wrap;html=1;fixedSize=1;labelBackgroundColor=none;" vertex="1" parent="1">
          <mxGeometry x="-813" y="1393" width="220" height="70" as="geometry" />
        </mxCell>
        <mxCell id="M-nEcao3kTR3dlmHZCQ8-8" value="" style="endArrow=classic;html=1;rounded=0;labelBackgroundColor=none;fontColor=default;" edge="1" parent="1">
          <mxGeometry width="50" height="50" relative="1" as="geometry">
            <mxPoint x="-573" y="1373" as="sourcePoint" />
            <mxPoint x="-613" y="1403" as="targetPoint" />
          </mxGeometry>
        </mxCell>
        <mxCell id="M-nEcao3kTR3dlmHZCQ8-9" style="edgeStyle=orthogonalEdgeStyle;rounded=0;orthogonalLoop=1;jettySize=auto;html=1;exitX=0.5;exitY=1;exitDx=0;exitDy=0;entryX=0.5;entryY=0;entryDx=0;entryDy=0;labelBackgroundColor=none;fontColor=default;" edge="1" parent="1" source="M-nEcao3kTR3dlmHZCQ8-11" target="M-nEcao3kTR3dlmHZCQ8-13">
          <mxGeometry relative="1" as="geometry" />
        </mxCell>
        <mxCell id="M-nEcao3kTR3dlmHZCQ8-10" style="edgeStyle=orthogonalEdgeStyle;rounded=0;orthogonalLoop=1;jettySize=auto;html=1;exitX=1;exitY=0.5;exitDx=0;exitDy=0;entryX=0;entryY=0.5;entryDx=0;entryDy=0;labelBackgroundColor=none;fontColor=default;" edge="1" parent="1" source="M-nEcao3kTR3dlmHZCQ8-11" target="M-nEcao3kTR3dlmHZCQ8-16">
          <mxGeometry relative="1" as="geometry" />
        </mxCell>
        <mxCell id="M-nEcao3kTR3dlmHZCQ8-11" value="N1 &amp;gt; N2 and&lt;div&gt;N1 &amp;gt; N3&lt;/div&gt;" style="rhombus;whiteSpace=wrap;html=1;labelBackgroundColor=none;" vertex="1" parent="1">
          <mxGeometry x="-788" y="1493" width="170" height="140" as="geometry" />
        </mxCell>
        <mxCell id="M-nEcao3kTR3dlmHZCQ8-12" style="edgeStyle=orthogonalEdgeStyle;rounded=0;orthogonalLoop=1;jettySize=auto;html=1;entryX=0;entryY=0.5;entryDx=0;entryDy=0;labelBackgroundColor=none;fontColor=default;" edge="1" parent="1" source="M-nEcao3kTR3dlmHZCQ8-13" target="M-nEcao3kTR3dlmHZCQ8-26">
          <mxGeometry relative="1" as="geometry">
            <Array as="points">
              <mxPoint x="-703" y="1813" />
            </Array>
          </mxGeometry>
        </mxCell>
        <mxCell id="M-nEcao3kTR3dlmHZCQ8-13" value="N1 &quot;es el mayor&quot;" style="shape=parallelogram;perimeter=parallelogramPerimeter;whiteSpace=wrap;html=1;fixedSize=1;labelBackgroundColor=none;" vertex="1" parent="1">
          <mxGeometry x="-763" y="1668" width="120" height="60" as="geometry" />
        </mxCell>
        <mxCell id="M-nEcao3kTR3dlmHZCQ8-14" style="edgeStyle=orthogonalEdgeStyle;rounded=0;orthogonalLoop=1;jettySize=auto;html=1;exitX=0.5;exitY=1;exitDx=0;exitDy=0;entryX=0.5;entryY=0;entryDx=0;entryDy=0;labelBackgroundColor=none;fontColor=default;" edge="1" parent="1" source="M-nEcao3kTR3dlmHZCQ8-16" target="M-nEcao3kTR3dlmHZCQ8-21">
          <mxGeometry relative="1" as="geometry" />
        </mxCell>
        <mxCell id="M-nEcao3kTR3dlmHZCQ8-15" style="edgeStyle=orthogonalEdgeStyle;rounded=0;orthogonalLoop=1;jettySize=auto;html=1;exitX=1;exitY=0.5;exitDx=0;exitDy=0;entryX=0;entryY=0.5;entryDx=0;entryDy=0;labelBackgroundColor=none;fontColor=default;" edge="1" parent="1" source="M-nEcao3kTR3dlmHZCQ8-16">
          <mxGeometry relative="1" as="geometry">
            <mxPoint x="-343" y="1563" as="targetPoint" />
          </mxGeometry>
        </mxCell>
        <mxCell id="M-nEcao3kTR3dlmHZCQ8-16" value="N2 &amp;gt; N1 and N2 &amp;gt; N3" style="rhombus;whiteSpace=wrap;html=1;labelBackgroundColor=none;" vertex="1" parent="1">
          <mxGeometry x="-563" y="1493" width="150" height="140" as="geometry" />
        </mxCell>
        <mxCell id="M-nEcao3kTR3dlmHZCQ8-17" value="SI" style="text;html=1;align=center;verticalAlign=middle;whiteSpace=wrap;rounded=0;labelBackgroundColor=none;" vertex="1" parent="1">
          <mxGeometry x="-763" y="1633" width="60" height="30" as="geometry" />
        </mxCell>
        <mxCell id="M-nEcao3kTR3dlmHZCQ8-18" value="" style="endArrow=classic;html=1;rounded=0;labelBackgroundColor=none;fontColor=default;" edge="1" parent="1">
          <mxGeometry width="50" height="50" relative="1" as="geometry">
            <mxPoint x="-668" y="1683" as="sourcePoint" />
            <mxPoint x="-623" y="1653" as="targetPoint" />
          </mxGeometry>
        </mxCell>
        <mxCell id="M-nEcao3kTR3dlmHZCQ8-19" value="NO" style="text;html=1;align=center;verticalAlign=middle;whiteSpace=wrap;rounded=0;labelBackgroundColor=none;" vertex="1" parent="1">
          <mxGeometry x="-623" y="1533" width="60" height="30" as="geometry" />
        </mxCell>
        <mxCell id="M-nEcao3kTR3dlmHZCQ8-20" style="edgeStyle=orthogonalEdgeStyle;rounded=0;orthogonalLoop=1;jettySize=auto;html=1;entryX=0;entryY=0;entryDx=0;entryDy=0;labelBackgroundColor=none;fontColor=default;" edge="1" parent="1" source="M-nEcao3kTR3dlmHZCQ8-21" target="M-nEcao3kTR3dlmHZCQ8-26">
          <mxGeometry relative="1" as="geometry" />
        </mxCell>
        <mxCell id="M-nEcao3kTR3dlmHZCQ8-21" value="N2 &quot;es el mayor&quot;" style="shape=parallelogram;perimeter=parallelogramPerimeter;whiteSpace=wrap;html=1;fixedSize=1;labelBackgroundColor=none;" vertex="1" parent="1">
          <mxGeometry x="-553" y="1668" width="120" height="60" as="geometry" />
        </mxCell>
        <mxCell id="M-nEcao3kTR3dlmHZCQ8-22" value="" style="endArrow=classic;html=1;rounded=0;labelBackgroundColor=none;fontColor=default;" edge="1" parent="1">
          <mxGeometry width="50" height="50" relative="1" as="geometry">
            <mxPoint x="-458" y="1683" as="sourcePoint" />
            <mxPoint x="-413" y="1653" as="targetPoint" />
          </mxGeometry>
        </mxCell>
        <mxCell id="M-nEcao3kTR3dlmHZCQ8-23" value="N3 &quot;es el mayor&quot;" style="shape=parallelogram;perimeter=parallelogramPerimeter;whiteSpace=wrap;html=1;fixedSize=1;labelBackgroundColor=none;" vertex="1" parent="1">
          <mxGeometry x="-353" y="1533" width="120" height="60" as="geometry" />
        </mxCell>
        <mxCell id="M-nEcao3kTR3dlmHZCQ8-24" value="NO" style="text;html=1;align=center;verticalAlign=middle;whiteSpace=wrap;rounded=0;labelBackgroundColor=none;" vertex="1" parent="1">
          <mxGeometry x="-413" y="1523" width="60" height="30" as="geometry" />
        </mxCell>
        <mxCell id="M-nEcao3kTR3dlmHZCQ8-25" value="" style="endArrow=classic;html=1;rounded=0;labelBackgroundColor=none;fontColor=default;" edge="1" parent="1">
          <mxGeometry width="50" height="50" relative="1" as="geometry">
            <mxPoint x="-263" y="1553" as="sourcePoint" />
            <mxPoint x="-218" y="1523" as="targetPoint" />
          </mxGeometry>
        </mxCell>
        <mxCell id="M-nEcao3kTR3dlmHZCQ8-26" value="FIN" style="ellipse;whiteSpace=wrap;html=1;aspect=fixed;labelBackgroundColor=none;" vertex="1" parent="1">
          <mxGeometry x="-313" y="1773" width="80" height="80" as="geometry" />
        </mxCell>
        <mxCell id="M-nEcao3kTR3dlmHZCQ8-27" style="edgeStyle=orthogonalEdgeStyle;rounded=0;orthogonalLoop=1;jettySize=auto;html=1;entryX=0.658;entryY=0.045;entryDx=0;entryDy=0;entryPerimeter=0;labelBackgroundColor=none;fontColor=default;" edge="1" parent="1" source="M-nEcao3kTR3dlmHZCQ8-23" target="M-nEcao3kTR3dlmHZCQ8-26">
          <mxGeometry relative="1" as="geometry" />
        </mxCell>
        <mxCell id="M-nEcao3kTR3dlmHZCQ8-28" value="SI" style="text;html=1;align=center;verticalAlign=middle;whiteSpace=wrap;rounded=0;labelBackgroundColor=none;" vertex="1" parent="1">
          <mxGeometry x="-563" y="1623" width="60" height="30" as="geometry" />
        </mxCell>
      </root>
    </mxGraphModel>
  </diagram>
</mxfile>
